Fly_normalized_Motion_pl08
version=1
nRows=20
nColumns=43
inDegrees=yes
endheader
time		pelvis_tilt		pelvis_list		pelvis_rotation		pelvis_tx		pelvis_ty		pelvis_tz		hip_flexion_r		hip_adduction_r		hip_rotation_r		knee_angle_r		ankle_angle_r		subtalar_angle_r		mtp_angle_r		hip_flexion_l		hip_adduction_l		hip_rotation_l		knee_angle_l		ankle_angle_l		subtalar_angle_l		mtp_angle_l		lumbar_extension		lumbar_bending		lumbar_rotation		neck_flexion		neck_lateral_bending		neck_rotation		arm_flex_r		arm_add_r		arm_rot_r		elbow_flex_r		pro_sup_r		wrist_flex_r		wrist_dev_r		hand_finger_flex_r		arm_flex_l		arm_add_l		arm_rot_l		elbow_flex_l		pro_sup_l		wrist_flex_l		wrist_dev_l		hand_finger_flex_l		
1.605909		-2.291688		-1.107627		90.246281		-0.010877		1.678053		1.033022		46.142787		-6.558991		-3.568967		-61.080541		-19.507071		-3.511273		11.845265		42.059040		-0.751150		-10.165011		-62.846459		-19.411931		-19.914550		17.808138		-45.541996		-2.185296		-0.697181		-11.707319		0.148871		-3.065451		33.765421		-44.364474		18.968743		101.927431		88.937588		-35.558514		0.325983		51.340507		31.762413		-41.529711		8.993823		103.150733		109.719175		-18.102605		17.097667		90.000210		
1.610227		-2.256618		-0.665109		90.205363		-0.010883		1.669560		1.022840		45.280981		-6.489291		-3.791114		-59.646300		-20.025627		-3.451035		11.698635		41.159672		-0.825715		-10.409475		-61.386296		-19.819522		-20.067712		17.694933		-45.742963		-2.220536		-0.783198		-11.966491		0.153935		-2.920320		29.613058		-44.744876		17.181288		101.993496		89.307768		-34.984217		0.274563		51.863612		27.798531		-42.030006		7.032973		103.140848		110.331026		-17.484765		16.743305		90.000210		
1.614545		-2.226534		-0.147004		90.181212		-0.010859		1.661049		1.012507		44.311908		-6.433966		-4.020659		-58.211194		-20.616718		-3.379101		11.528625		40.135709		-0.907006		-10.708740		-59.879476		-20.319095		-20.187376		17.596116		-45.951699		-2.256296		-0.857418		-12.533176		0.151009		-2.807484		25.425088		-44.906578		15.250904		101.785109		89.876794		-34.072211		0.246065		52.365811		23.900689		-42.372212		5.075344		102.885847		111.000388		-16.536359		16.271864		90.000210		
1.618864		-2.209682		0.236667		90.155702		-0.010837		1.651840		1.002262		43.521392		-6.384296		-4.235945		-56.844250		-21.150586		-3.338334		11.394347		39.316524		-0.959925		-10.947660		-58.504490		-20.690541		-20.224843		17.529149		-46.036429		-2.305246		-0.933361		-12.945324		0.181565		-2.685349		21.229258		-45.165902		13.506496		101.656274		90.099137		-33.834360		0.199364		52.580047		19.926726		-42.688115		3.097146		102.696253		111.179750		-16.093158		16.179814		90.000210		
1.623182		-2.201586		0.674801		90.128023		-0.010819		1.642627		0.991921		42.644612		-6.349423		-4.460636		-55.444714		-21.718778		-3.326018		11.257306		38.392868		-1.004289		-11.221898		-57.069628		-21.108169		-20.222338		17.455721		-46.140392		-2.367469		-1.024396		-13.478287		0.215118		-2.563920		17.116492		-45.193890		11.716166		101.272971		90.450572		-33.419037		0.090582		52.813332		15.975112		-42.867721		1.113096		102.343562		111.387549		-15.548979		16.088633		90.000210		
1.627500		-2.212515		1.158694		90.103056		-0.010798		1.633240		0.981560		41.719628		-6.335896		-4.689508		-54.074418		-22.264022		-3.348790		11.118102		37.415085		-1.032348		-11.513748		-55.650537		-21.496462		-20.202811		17.378443		-46.300405		-2.446396		-1.135705		-13.948753		0.269718		-2.431177		13.026986		-45.118199		9.839969		100.804550		91.030100		-32.739558		-0.088296		53.055844		12.028185		-42.921661		-0.953764		101.950817		111.630062		-14.770499		15.907366		90.000210		
1.631818		-2.197079		1.558549		90.112942		-0.010760		1.623402		0.971323		40.884350		-6.306482		-4.947178		-52.719295		-22.797801		-3.415949		10.978868		36.554439		-1.069201		-11.761881		-54.273203		-21.835423		-20.113773		17.290555		-46.410664		-2.487005		-1.289208		-14.186932		0.310246		-2.256921		9.024012		-44.964062		8.099037		100.319836		91.360462		-32.609390		-0.365249		53.250088		8.002795		-42.880959		-3.069159		101.611296		111.606554		-14.501586		15.890316		90.000210		
1.636136		-2.170426		2.280518		90.143530		-0.010650		1.614073		0.960965		39.626906		-6.270411		-5.260356		-51.295850		-23.309188		-3.561059		10.782333		35.276944		-1.136792		-12.068006		-52.804875		-22.134230		-19.994199		17.167839		-46.899838		-2.498903		-1.546226		-14.261641		0.332058		-1.977676		5.251129		-44.606167		6.285904		99.625928		92.384100		-31.698854		-1.098213		53.754077		3.904180		-42.724994		-5.438273		101.245760		111.662836		-13.822128		15.347177		90.000210		
1.640455		-2.129365		2.636148		90.161597		-0.010736		1.603611		0.950620		38.825682		-6.250709		-5.579373		-49.971217		-23.776047		-3.544933		10.637842		34.508098		-1.203869		-12.314728		-51.538499		-22.438014		-19.864575		17.105821		-46.835027		-2.493313		-1.704480		-14.928172		0.323620		-1.828046		1.512475		-44.280964		4.764591		98.886534		92.538073		-31.835398		-1.287349		53.934302		0.013367		-42.430440		-7.337432		100.636995		111.472922		-13.771919		15.311829		90.000210		
1.644773		-2.076470		3.116563		90.205816		-0.010764		1.593225		0.940249		37.841069		-6.210413		-5.915466		-48.614253		-24.216667		-3.594752		10.471972		33.572078		-1.281617		-12.572298		-50.232387		-22.687045		-19.760411		17.079823		-46.944154		-2.472499		-1.891832		-15.398332		0.318629		-1.636730		-2.131430		-43.882353		3.230172		98.073071		92.867772		-31.702994		-1.729432		54.299634		-3.858450		-42.052794		-9.290433		100.037839		111.261156		-13.716310		15.002632		90.000210		
1.649091		-2.005516		3.788302		90.263060		-0.010810		1.583037		0.929760		36.586266		-6.168544		-6.321679		-47.191281		-24.598934		-3.637723		10.248049		32.388013		-1.366898		-12.827439		-48.867366		-22.869395		-19.631150		17.207269		-47.240466		-2.424052		-2.107563		-15.855783		0.317237		-1.416268		-5.609672		-43.396698		1.677573		97.137756		93.433365		-31.093870		-2.451711		54.921347		-7.664423		-41.574522		-11.257321		99.278237		110.991346		-13.515317		14.044457		90.000210		
1.653409		-1.950261		4.139548		90.316324		-0.011029		1.571874		0.919453		35.748207		-6.148648		-6.676518		-45.855639		-24.961134		-3.625336		10.083010		31.619389		-1.405910		-13.024706		-47.598242		-23.006362		-19.520301		17.372792		-47.163562		-2.380995		-2.247720		-16.333942		0.348286		-1.252557		-9.158186		-42.924936		0.134066		96.282367		93.498426		-30.908228		-2.795586		55.266121		-11.274291		-40.978399		-12.992222		98.455089		110.801701		-13.481618		13.461624		90.000210		
1.657727		-1.902190		4.371523		90.361048		-0.011268		1.560253		0.908990		35.056136		-6.135366		-7.019608		-44.587498		-25.311123		-3.557304		9.963590		30.990251		-1.449206		-13.248794		-46.383965		-23.206655		-19.354022		17.475305		-46.833518		-2.349730		-2.391461		-17.302642		0.338817		-1.147715		-12.564403		-42.349940		-1.211548		95.260963		93.388342		-30.902701		-2.908438		55.460454		-14.675057		-40.300368		-14.493749		97.433851		110.719361		-13.519442		13.193446		90.000210		
1.662045		-1.838726		4.818786		90.488294		-0.011233		1.548840		0.898603		34.051851		-6.103193		-7.433761		-43.220029		-25.592766		-3.521540		9.798625		30.089324		-1.505698		-13.429339		-45.068521		-23.354425		-19.006531		17.911143		-46.794984		-2.294266		-2.539604		-17.909685		0.344108		-0.977913		-15.862247		-41.759258		-2.712770		94.220932		93.426121		-30.058300		-3.528966		55.875023		-18.031582		-39.646841		-15.999490		96.361216		110.789151		-13.380949		11.853934		90.000210		
1.666364		-1.829138		5.027821		90.558285		-0.011495		1.536675		0.888311		33.400556		-6.125703		-7.748534		-41.978485		-25.880289		-3.472900		9.676376		29.476000		-1.489385		-13.623500		-43.845475		-23.531387		-18.619635		18.224367		-46.507654		-2.275527		-2.742458		-18.514602		0.382418		-0.748865		-19.124316		-41.110543		-4.100891		93.232257		93.165617		-29.628126		-3.814686		56.025019		-21.317347		-38.915391		-17.442102		95.332049		111.003252		-13.364846		11.170072		90.000210		
1.670682		-1.836216		5.317939		90.645168		-0.011606		1.524485		0.877901		32.628937		-6.152436		-8.077890		-40.722477		-26.126009		-3.424575		9.558228		28.750860		-1.473080		-13.856488		-42.589893		-23.698590		-18.147041		18.600625		-46.253406		-2.289504		-2.960326		-19.263751		0.426218		-0.488785		-22.215438		-40.403978		-5.438010		92.122394		92.790136		-28.851434		-4.240878		56.161768		-24.487753		-38.135680		-18.796741		94.219710		111.434410		-13.365414		10.270026		90.000210		
1.675000		-1.817459		5.432350		90.681108		-0.011643		1.511727		0.867447		32.067920		-6.111806		-8.294911		-39.508586		-26.323244		-3.360513		9.485080		28.267673		-1.483378		-14.041629		-41.442704		-23.923121		-17.947300		18.697030		-45.736486		-2.314983		-3.124564		-20.322267		0.362898		-0.370365		-25.180899		-39.701034		-6.524030		91.002009		92.536346		-28.795476		-4.232989		56.171624		-27.532558		-37.354264		-19.945233		93.101831		111.565286		-13.413640		10.185821		90.000210		
1.679318		-1.838886		5.841501		90.773264		-0.011725		1.499476		0.856903		31.081878		-6.136467		-8.625113		-38.152130		-26.462654		-3.279339		9.413331		27.356940		-1.425505		-14.259553		-40.092586		-24.016159		-17.566606		19.163103		-45.584729		-2.344272		-3.358798		-21.086559		0.393579		-0.056794		-28.016665		-38.975012		-7.763567		89.781801		92.136854		-27.477770		-4.832605		56.168460		-30.473488		-36.510569		-21.122060		91.943110		112.253649		-13.441772		9.108294		90.000210		
1.683636		-1.827335		5.939010		90.810920		-0.011750		1.486362		0.846427		30.500572		-6.086291		-8.842834		-36.883775		-26.585439		-3.223120		9.374382		26.869214		-1.405200		-14.423770		-38.891089		-24.168638		-17.488082		19.233735		-45.038402		-2.367635		-3.535626		-22.079193		0.308585		0.104832		-30.771641		-38.272814		-8.776676		88.647995		91.973078		-27.366676		-4.838411		56.140834		-33.257243		-35.580001		-22.162696		90.750007		112.356146		-13.509590		9.120715		90.000210		
1.687955		-1.844637		6.570249		90.920599		-0.012089		1.474369		0.835477		29.156378		-6.163669		-9.357855		-35.447173		-26.658009		-3.078302		9.445743		25.649270		-1.317453		-14.650383		-37.459985		-24.351895		-17.356138		19.670038		-45.064575		-2.335786		-3.840598		-22.999587		0.286564		0.559738		-33.303157		-37.507033		-10.025821		87.258445		91.972859		-25.514446		-5.629902		56.006171		-35.894092		-34.499141		-23.204417		89.410564		112.995119		-13.596727		8.166081		90.000210		
